<svg version="1.2" xmlns="http://www.w3.org/2000/svg" viewBox="0 0 958 1280" width="958" height="1280">
	<title>1302192-svg</title>
	<style>
		.s0 { fill: #000000 } 
		.s1 { fill: #ffffff;stroke: #00faeb } 
	</style>
	<g id="Layer">
		<path id="Layer" class="s0" d="m822.6 0.3c0.1 0.1-3.2 18.8-7.2 41.5-7.1 39.9-7.4 41.4-10.1 43.6-1.5 1.3-21.5 18.3-44.4 37.7l-41.7 35.4-13.8 4.7c-7.7 2.5-25.4 8.5-39.4 13.3l-25.5 8.7-28.4 50.9c-15.6 28-28.9 51.3-29.5 51.8-1.6 1.3-110.9 52.4-112.1 52.4-1.6 0-112.9-49.5-114.4-50.9-0.8-0.7-14.1-23.2-29.5-50l-28.1-48.8-18.5-5.9c-63-20-58.9-18.4-66.4-24.6-3.9-3.1-23.4-19.2-43.5-35.9l-36.5-30.3-3.2-16.7c-9.6-51.1-11.7-63.3-11.2-63.8 0.6-0.5 209.2 91 211.5 92.9 1.1 0.8 51.3 98.5 52.1 101.2 0.1 0.5 4.6 3.8 10 7.1 56.2 35.5 77.4 48.5 78.5 48.1 0.6-0.3 19.9-12.9 42.7-28.1l41.5-27.7 26.2-53.7 26.1-53.7 42.9-19.9c23.5-10.9 71.8-33.3 107.3-49.7 35.4-16.4 64.5-29.7 64.6-29.6z"/>
		<path id="Layer" class="s0" d="m628 32.4c0 0.2-4.9 3.2-10.9 6.5l-10.8 6.1-0.7 4.8c-0.3 2.6-1.5 13.9-2.7 25.1l-2.1 20.4-25.7 52.9-25.8 52.9-39.4 26.3-39.5 26.3-40.1-25.1-40.1-25.1-26-51-26-51-2.9-25.4-2.8-25.4-10.9-5.4c-11.8-5.8-11.7-5.9 2.4-3.9l9.5 1.4 40 21.6c22 11.9 40.5 22.2 41.2 22.9 0.6 0.7 4.9 12.9 9.6 27.2 14.3 43.4 36.4 111.5 39.3 120.7l2.8 8.8h4.1 4.1l5.6-18.8c3-10.3 13.8-46 23.9-79.4l18.2-60.6 40.5-24.4 40.4-24.3 11.1-2.2c12.1-2.3 13.7-2.5 13.7-1.9z"/>
		<path id="Layer" class="s0" d="m807.8 126.9c-0.3 0.8-65.8 85-79.3 102-5.6 7-10 10.4-61.7 47.6-30.6 22-55.9 40.3-56.2 40.6-0.3 0.3-0.1 2.2 0.5 4.2l1 3.7h10.3c9.4 0 10.4 0.2 12.3 2.2l2 2.3-12.8 53c-7.1 29.1-12.8 53.4-12.9 54 0 0.5 1.4 1.8 3.1 2.8 2.6 1.4 3.4 1.5 4.7 0.5 1.4-1.1 44.2-37.2 65.9-55.5l5.1-4.4 23.6 22.6 23.6 22.5-28.8 14.1c-15.8 7.7-29.6 14.2-30.7 14.5-1.1 0.3-16.9-0.9-35.2-2.6-18.3-1.6-34.7-3-36.5-3-2.5 0-10.9 4.7-35.6 20-17.7 11-32.6 20-33 20-0.4 0-10.8-9.9-23.1-21.8l-22.5-21.8 13.7-40.9c8.7-25.9 14.3-41.2 15.4-42 1-0.7 13-9.3 26.6-19.2l24.9-17.8 36.5-65.5c20.1-36 37-66 37.6-66.6 0.7-0.6 18.3-6.9 39.2-14l38-12.8 16.8-14.3c9.3-7.9 18.1-14.6 19.5-15 1.5-0.4 12.4-2.8 24.2-5.4 23.5-5.2 24.3-5.3 23.8-4z"/>
		<path id="Layer" class="s0" d="m500.4 128c0.4 0 0.6 0.7 0.2 1.5-0.5 1.3-8.7 28.6-24.2 80-3 9.9-5.6 18.4-5.8 19-0.1 0.5-1.5-2.8-3-7.5-3-9.4-12.8-39.5-23.1-70.8-3.6-11.2-6.5-20.5-6.3-20.7 0.2-0.1 6.8 4.4 14.8 10.1 8 5.6 15.1 10.3 15.8 10.3 0.7 0.1 7.9-4.8 16-10.9 8.1-6 15.1-10.9 15.6-11z"/>
		<path id="Layer" class="s0" d="m146.3 139.1c7.8 1.6 19.5 3.8 25.9 5l11.7 2.2 16.1 13.3 16.1 13.3 18.7 6c10.3 3.3 27.6 8.8 38.5 12.3l19.8 6.3 37.4 65 37.4 65 25.8 17.3c14.2 9.5 26.4 17.6 27 18 1.1 0.7 29.3 79.2 29.3 81.6 0 0.6-9.6 10.7-21.4 22.5-15.4 15.3-21.9 21.2-23 20.8-0.9-0.4-16.1-9-33.9-19.1l-32.2-18.5-37.4 3.7-37.3 3.8-28.2-12.6c-15.4-6.9-28.3-12.8-28.6-13.2-0.3-0.4 9.8-11.1 22.4-23.7 19.9-20 23.1-22.9 24.5-21.8 1 0.7 16.9 13.8 35.5 29.2 18.5 15.4 34 28.1 34.4 28.2 0.4 0.2 2-0.7 3.6-2l2.9-2.3-7.3-28c-4-15.3-10.1-38.8-13.6-52.1-3.5-13.3-6.4-24.8-6.4-25.4 0-0.7 0.7-2.1 1.7-3.1 1.4-1.5 3.2-1.8 12.3-1.8h10.7l1.1-3.7c0.6-2.1 0.8-4.1 0.4-4.4-0.4-0.4-25.2-17.7-55.2-38.4-30-20.7-55.3-38.4-56.4-39.3-1-1-8.4-9.8-16.4-19.7-8.1-9.9-27.1-33.4-42.4-52.2-15.3-18.8-27.8-34.4-27.8-34.6 0-0.2 6.4 0.9 14.3 2.4z"/>
		<path id="Layer" class="s0" d="m796.5 156.4c0.6 0.2 16.4 7.4 35.2 16.1l34.1 15.7 34.8 79.4c19.1 43.7 34.5 79.6 34.2 79.9-1 1-47.7-1.6-87.8-4.9l-40.5-3.3-32.2-12.8-32.2-12.7-29.8 5.1c-16.4 2.8-37.4 6.4-46.8 8.1l-17 2.9-5.8-6.4c-5.8-6.5-5.9-6.5-11.3-6.5-3 0-5.4-0.3-5.3-0.8 0-0.4 12.9-9.9 28.7-21.2 15.8-11.3 38.8-27.8 51.2-36.6l22.5-16.2 31-39.7c17.1-21.8 32.1-41.2 33.5-43.1 1.4-1.8 3-3.2 3.5-3z"/>
		<path id="Layer" class="s0" d="m145.2 166.6c0.4 0.3 15.6 18.9 33.9 41.4l33.2 41 51.3 35.6c28.3 19.5 51.4 35.6 51.4 35.7 0 0.1-2.6 0.3-5.8 0.5-5.5 0.3-5.9 0.5-12.3 6.8l-6.6 6.6-26.4-4.1c-14.5-2.3-33.5-5.2-42.2-6.6-8.7-1.4-17.2-2.5-18.7-2.5-1.6 0-17.4 6.2-35.2 13.8l-32.3 13.9-32.5 2.7c-17.9 1.5-45.7 4.1-61.9 5.7-16.2 1.6-29.5 2.8-29.6 2.7-0.1-0.3 57.6-141.4 63.5-155.3l2.6-5.9 33.4-16.2c18.4-8.9 33.8-16 34.2-15.8z"/>
		<path id="Layer" class="s0" d="m575.2 301c0.4 0-1.6 4.1-4.5 9.2l-5.2 9.2-26.7 19.1-26.7 19-15 44.7-14.9 44.7 6.1 5.8c3.4 3.1 14.6 14 25 24l18.7 18.3-6.5 22.7c-3.6 12.5-6.5 23.3-6.5 23.9 0 0.6 11.8 21.7 26.1 46.9l26.2 45.7-1.1 4.7c-1.9 7.7-12 43.2-12.4 43.7-0.2 0.2-19.7-7.3-43.2-16.7l-42.7-17.1-41.6 17.2c-22.8 9.4-41.7 17-41.9 16.8-0.7-0.7-14.4-46-14.4-47.6 0-0.9 6.5-13.1 14.4-27.2 7.9-14 19.2-34.3 25.1-45l10.8-19.5-3.1-12.5c-1.8-6.9-4.6-17.9-6.3-24.4l-3.1-11.9 24-24.1 24.1-24.1-3.3-9c-1.8-5-8.8-24.8-15.6-44.1l-12.3-35.1-27.4-18.4-27.4-18.3-4.3-7.6c-7.6-13.3-7.7-12.4 1.1-8.6 4.3 1.9 22.2 9.8 39.8 17.6 56.3 24.9 58.7 26 60 26 0.7 0 24.4-10.8 52.6-24 28.3-13.2 51.7-24 52.1-24z"/>
		<path id="Layer" class="s0" d="m741.5 322.5c0.6 0.1 15 5.8 32 12.5l31 12.2 40.9 3.4c22.6 1.9 41 3.5 41.1 3.7 0.1 0.1 7.7 11.6 16.9 25.6 9.2 13.9 16.6 25.4 16.4 25.6-0.2 0.1-33.6-12.6-74.2-28.1l-74-28.4-12 9.3c-6.7 5-19.3 14.7-28.1 21.4-8.8 6.8-16.2 12.3-16.5 12.3-0.5 0-14.4-13-43.5-40.5-8-7.6-14.3-14.1-13.9-14.4 0.3-0.3 19.1-3.8 41.7-7.7 22.7-4 41.7-7.1 42.2-6.9z"/>
		<path id="Layer" class="s0" d="m202.5 329.1c1.7-0.2 80 12 80.4 12.5 0.5 0.4-7.8 9-38.7 40.6l-15.4 15.6-11.6-8.7c-25.7-19.1-44.5-32.6-45.2-32.4-0.4 0.1-32.7 13.7-71.8 30.1-39.2 16.5-71.2 29.7-71.2 29.5 0-0.3 7.3-12.4 16.2-26.9 12.7-20.8 16.6-26.4 18.2-26.4 1.2 0 18.8-1.6 39.1-3.4l37-3.4 31-13.5c17.1-7.5 31.5-13.6 32-13.6z"/>
		<path id="Layer" class="s0" d="m643.9 337.2c1.3 0.5 39.1 36.1 39.1 36.9 0 0.6-8.4 8-25.4 22.4-3.3 2.8-12.4 10.5-20.4 17.3-8 6.7-14.6 12.1-14.8 11.9-0.2-0.2 4.3-20.1 10.1-44.1 5.8-24.1 10.5-44 10.5-44.3 0-0.2 0.4-0.3 0.9-0.1z"/>
		<path id="Layer" class="s0" d="m296.7 340.4c0.6 0.6 23.3 87.9 23 88.3-0.3 0.3-6.3-4.5-37.5-30.5l-23.2-19.3 18.7-19.4c10.2-10.7 18.8-19.3 19-19.1z"/>
		<path id="Layer" class="s0" d="m773.3 359c1 0 19.2 6.7 40.5 14.9 21.3 8.2 45.2 17.4 53.2 20.4 8 3 24.6 9.4 36.9 14.1 12.4 4.7 22.8 8.9 23.1 9.3 0.4 0.5 1.4 7.5 2.3 15.8 0.9 8.2 6.6 58.6 12.7 112 6.1 53.3 11.7 102.9 12.5 110.1 0.8 7.3 2 16.7 2.5 21 0.5 4.2 0.9 7.8 0.7 8-0.2 0.2-29.3-46.5-86.5-139.1l-38.2-62-43.4-30.5c-37.6-26.4-45.1-32.1-56-42.7l-12.7-12.1 19.3-14.8c10.6-8.1 22-16.9 25.3-19.5 3.3-2.7 6.8-4.8 7.8-4.9z"/>
		<path id="Layer" class="s0" d="m171.2 366c1.3 0 51.3 36.8 51.3 37.8 0 0.4-6.5 7-14.5 14.7-11.8 11.4-21.8 19.5-53.3 43l-38.8 29-37.8 66.5c-45.5 80.1-77.5 135.9-77.8 135.6-0.1-0.1 2.7-35 6.2-77.6 3.6-42.6 7-83.1 7.5-90 4.4-53.7 8.1-96.4 8.3-96.6 0.1-0.1 21.3-9 47.2-19.9 52-21.8 71.1-29.8 89-37.4 6.6-2.8 12.3-5.1 12.7-5.1z"/>
		<path id="Layer" class="s0" d="m738.7 433.4c0.1 0.1-2.7 19.9-6.1 44.1l-6.4 44-34.4 58.5c-19 32.1-34.9 58.5-35.4 58.6-0.5 0.2-14.4-16-31-35.9l-30.1-36.1 5.3-11.5 5.2-11.6-6.6-6.7c-3.6-3.7-6.4-6.9-6.1-7.1 0.2-0.3 13.9-9.4 30.4-20.5 29-19.4 30.4-20.4 43.5-33.7l13.5-13.7 29-14.3c16-7.8 29.1-14.2 29.2-14.1z"/>
		<path id="Layer" class="s0" d="m747.8 434c0.2 0 18.1 12.4 39.7 27.5l39.3 27.6 23.3 37.7c12.7 20.7 27.9 45.3 33.7 54.6 5.8 9.3 10.5 17.4 10.5 18-0.1 0.6-0.2 11.3-0.3 23.8-0.1 12.6-0.4 22.8-0.8 22.8-0.4-0.1-20.2-14.6-44.1-32.3l-43.3-32.2-31.1-60.9-31.1-60.9 1.3-10.1c0.7-5.6 1.5-11.3 1.8-12.9 0.3-1.5 0.8-2.7 1.1-2.7z"/>
		<path id="Layer" class="s0" d="m236.7 454l25.2 11.2 14.8 14.2c14.2 13.6 15.9 14.9 44.3 33.1 16.2 10.4 29.7 19 29.9 19.2 0.3 0.2-2.5 3.4-6.2 7.1-3.7 3.7-6.7 7.3-6.7 8 0 0.7 2.3 5.5 5 10.6 2.8 5.1 5 9.7 5 10.2 0 1.6-58.5 73.9-59.6 73.6-0.5-0.2-8.9-13.9-18.8-30.5-9.8-16.6-25-42.2-33.7-56.8l-15.8-26.6-7.6-43c-4.1-23.6-7.5-43.2-7.5-43.6 0-0.9-0.1-0.9 31.7 13.3z"/>
		<path id="Layer" class="s0" d="m196.1 441c0.3 0 1.4 5.4 2.5 11.9l2 11.9-28.9 61.9-28.9 61.8-40.7 32.1c-32.1 25.4-40.7 31.8-41.3 30.5-0.4-0.9-1.1-10.8-1.7-22l-1-20.3 27.1-47.7c14.9-26.2 29.1-51.4 31.7-56l4.6-8.4 37-27.8c20.4-15.3 37.2-27.9 37.6-27.9z"/>
		<path id="Layer" class="s0" d="m609.5 456.4c27.1 2.2 58.5 5.2 58.5 5.6 0 0.3-4.6 5.1-10.2 10.7l-10.3 10.1-29.5 4.1c-16.2 2.2-33.7 4.6-38.7 5.3-5.1 0.6-9.7 1.4-10.3 1.8-0.5 0.3-5 8-9.9 17-8.6 15.7-8.9 16.5-6.8 17.1 1.2 0.3 8.8 1.6 16.8 2.8l14.7 2.3 6 6.2 6 6.1-4.1 9.3-4.2 9.3-17.4 7.9c-9.6 4.4-18.1 8.1-18.8 8.2-0.7 0.2-5.9-7.8-12.6-19.5l-11.4-19.9 6.3-22c3.5-12.2 6.6-22.3 6.8-22.5 0.3-0.3 14.8-9.4 32.3-20.4 31.7-19.8 31.8-19.9 36.8-19.5z"/>
		<path id="Layer" class="s0" d="m371 477.6c17.8 10.2 32.5 18.6 32.6 18.7 0.1 0.1 2.3 8.3 4.9 18.2 2.5 9.9 5.2 20.1 6 22.6l1.3 4.7-11 19.8c-6 11-11.1 20-11.3 20.2-0.1 0.1-8.5-3.5-18.6-8l-18.4-8.3-4.5-8.7-4.5-8.8 6.3-6.3 6.2-6.3 17.5-2.8 17.5-2.9-2.8-5.1c-1.6-2.8-5.9-10.6-9.7-17.4-5.9-10.7-7-12.2-9.4-12.3-1.4 0-19.3-1.9-39.7-4.2l-37.1-4.2-11.2-10.4c-6.1-5.7-10.9-10.6-10.7-10.9 0.3-0.2 12.3-1.7 26.8-3.2 40.3-4.2 31.8-6.1 69.8 15.6z"/>
		<path id="Layer" class="s0" d="m741.7 474c0.2 0 0.7 0.8 1.1 1.8 0.4 1 13.3 26.4 28.7 56.5l28 54.8 55.2 40.7c34.5 25.4 55.4 41.5 55.7 42.7 0.2 1.1 1.2 13.2 2.1 27 0.9 13.7 2.4 36.9 3.4 51.5 1 14.6 1.7 26.7 1.5 26.9-1 1.2-59.3-58.5-108.2-110.8l-55.6-59.5-9.4-40c-5.1-22.1-9.3-41.5-9.3-43.2-0.1-1.7 1.4-13.2 3.2-25.7 1.8-12.5 3.4-22.7 3.6-22.7z"/>
		<path id="Layer" class="s0" d="m203.1 480.8c0.3 0.4 2.4 11.3 4.7 24.3l4.2 23.6-6 28.4c-3.4 15.6-7.2 33.8-8.6 40.4-2.5 11.8-2.7 12.1-8.2 18.5-34.7 39.8-149.2 167.5-149.6 166.8-0.4-0.6 2.5-101.4 3-103.3 0.2-1.2 22.4-19.4 53.6-44l53.2-42 26.5-56.7c14.6-31.2 26.8-56.4 27.2-56z"/>
		<path id="Layer" class="s0" d="m631.3 493.1c0.4 0 0.7 0.1 0.7 0.3 0 0.2-10.5 7.4-23.4 16.1l-23.4 15.7-10.8-1.7c-6-1-11-1.9-11.2-2-0.5-0.4 9.7-19.4 10.7-20 0.5-0.2 9.5-1.6 20.2-3.1 10.7-1.4 23.2-3.2 27.9-3.9 4.7-0.7 8.8-1.3 9.3-1.4z"/>
		<path id="Layer" class="s0" d="m318.7 497.2c7.2 0.8 51.2 5.8 51.8 5.8 0.3 0 11.5 19.8 11.5 20.4 0 0.2-5.2 1.1-11.5 2.1l-11.5 1.7-22.2-14.2c-12.3-7.9-22.9-14.8-23.6-15.5-1-0.9 0.2-1 5.5-0.3z"/>
		<path id="Layer" class="s0" d="m728.5 534.2c0.4 0.4 16.5 70.7 16.5 71.9 0 0.9-62.6 88.7-87.2 122.3l-5.8 8v-6.8c0-3.7 2-23.6 4.5-44.1l4.5-37.3 33.6-57.1c18.6-31.4 33.8-57 33.9-56.9z"/>
		<path id="Layer" class="s0" d="m251.2 595.5l33 55.7 3.9 20.5c3.2 16.6 4.1 24.6 5 40.9 0.6 11.1 0.9 21.3 0.7 22.5-0.3 2-1.7 0.4-8.3-9-4.4-6.3-22-30.6-39.1-54.1-17.1-23.4-33.9-46.8-37.3-51.8l-6.2-9.2 7.1-33.8c3.9-18.5 7.3-34.5 7.6-35.5 0.4-1.2 11.2 16.2 33.6 53.8z"/>
		<path id="Layer" class="s0" d="m589 573.1c0.8 0 15.5 16.8 32.5 37.4 25.7 31.1 31 37.9 30.8 40.2-0.5 6.8-7.5 62.8-7.9 63.2-0.2 0.3-1-0.3-1.7-1.1-0.6-0.9-12-14.3-25.2-29.8-14.7-17.3-26.4-32.1-30.4-38.3-11.6-18.6-32.4-55.8-31.5-56.7 0.5-0.5 7.9-4 16.4-7.9 8.5-3.9 16.2-7 17-7z"/>
		<path id="Layer" class="s0" d="m356.3 574.6c1.2 0.4 8 3.3 15 6.5 7 3.3 13.1 5.9 13.6 5.9 0.4 0 1.5 0.6 2.5 1.3 1.7 1.2 0.6 3.5-14.9 31.3-9.2 16.4-18.2 32-19.9 34.5-1.7 2.5-13.9 17.1-27.1 32.4l-24 27.7-0.6-11.3c-0.4-6.5-2.2-19.4-4.3-30-2-10.2-3.6-19.5-3.6-20.6 0-1.2 13.1-18.4 30.6-40.2 27.1-33.9 30.7-38.1 32.7-37.5z"/>
		<path id="Layer" class="s0" d="m751.5 615.2c0.7 0.7 23.6 25.4 51 54.8 27.4 29.4 51.1 54.8 52.6 56.5 2.7 3 2.9 3.9 17.4 105.3 8 56.3 14.5 102.8 14.3 103.3-0.6 1.9-14.3-19-19.4-29.6-2.8-6.1-24.9-53.1-48.9-104.5-24.1-51.4-51.8-110.7-61.7-131.8-9.9-21.1-17.7-38.9-17.5-39.6 0.3-0.7 2.9-4.6 5.8-8.5 4.2-5.8 5.5-6.9 6.4-5.9z"/>
		<path id="Layer" class="s0" d="m198 619c1.4 0.1 9.2 13.2 8.7 14.8-0.3 0.9-11.6 26.9-25.2 57.7-13.6 30.8-29.6 67-35.5 80.5-5.9 13.5-22.6 51.3-37 84-23.5 53.4-37.7 82.5-38.7 79.3-0.2-0.5 3-28.4 7.2-61.9 4.1-33.5 9.6-78 12.1-98.9 4.4-35.7 4.8-38.2 7.3-41.7 1.4-2 24.7-28.4 51.6-58.7 27-30.3 49.2-55.1 49.5-55.1z"/>
		<path id="Layer" class="s0" d="m733.2 638.8c0.4 0.4 4.6 9 9.3 19.2 4.8 10.2 10.6 22.5 12.9 27.5 2.3 4.9 27.8 59.3 56.5 120.7l52.3 111.6-13.3 41.1c-7.4 22.6-13.7 40.7-14 40.3-2.4-2.6-12.9-45.2-25.4-102.7-8-36.9-16.2-74.5-18.3-83.6l-3.7-16.7-52.5-42.2c-28.9-23.2-53.1-42.8-53.9-43.5-1.1-1.1 2.4-6.6 22.6-34.7 13.2-18.3 24.6-34.3 25.4-35.5 0.7-1.2 1.7-1.9 2.1-1.5z"/>
		<path id="Layer" class="s0" d="m213.1 641c1 0 51.1 69 50.7 69.9-0.2 0.5-21.9 18.8-48.3 40.6-26.4 21.8-49.9 41.3-52.1 43.3l-4.2 3.7-7.1 35.5c-18.3 90.5-34.4 167-35.1 167-0.4 0-6.6-18.3-13.9-40.6l-13.3-40.7 6-13.6c26.5-59.9 94.7-215 104.5-237.3 6.7-15.3 12.5-27.8 12.8-27.8z"/>
		<path id="Layer" class="s0" d="m368.1 645.8c0.3 0.4 3.6 10.8 7.3 23.1 6.8 22.5 6.8 22.5 15 35 4.5 7 10.8 16.7 14 21.8 3.8 6 6.7 9.5 8.4 10.2 1.5 0.6 12.2 4.2 23.7 8.1 11.6 3.9 21.5 7.6 22 8.4 1.2 1.5 10.1 37.4 9.5 37.9-0.3 0.2-11.1 3.1-24 6.4l-23.5 6-40.5-4-40.4-3.9-17.7-16.2-17.6-16.1-0.6-7.5c-0.4-4.1-0.9-12.2-1.3-18l-0.6-10.6 28.8-33.5c18.9-22 30.3-36 32.9-40.7 2.2-3.9 4.2-6.8 4.6-6.4z"/>
		<path id="Layer" class="s0" d="m577.5 645c0.2 0 2.2 3.1 4.4 6.8 2.3 3.7 17.1 22.1 33 40.7l29 34v18.7l-0.1 18.6-13.6 12.4c-7.6 6.8-15.7 14.2-18 16.3l-4.4 3.9-41.1 3.1-41.2 3.1-23.5-6.1c-17.5-4.6-23.5-6.5-23.3-7.6 0.6-5.2 7.7-35.6 8.5-36.6 0.5-0.7 11.5-4.7 24.4-9l23.5-7.8 12.2-18.9c6.7-10.4 13.1-20.1 14.3-21.5 1.3-1.6 3.9-9.1 6.8-19.6 2.6-9.4 5.6-20 6.7-23.8 1.1-3.7 2.2-6.7 2.4-6.7z"/>
		<path id="Layer" class="s0" d="m471.7 658.1c1.6-0.1 71.5 27.8 72.7 29q0.9 0.9 0 0.9c-2.7 0-62.9 13.2-63.4 13.9-0.3 0.4-2 3.1-3.9 5.9-1.8 2.9-3.6 5-4.1 4.7-0.4-0.2-2.4-2.9-4.5-6-2.1-3-4.5-5.7-5.4-5.9-0.9-0.3-15.3-3.3-32.1-6.7-16.8-3.4-30.6-6.2-30.8-6.4-0.1-0.1 15.7-6.7 35-14.8 19.4-8 35.8-14.6 36.5-14.6z"/>
		<path id="Layer" class="s0" d="m422.6 700.6c14.8 3 29.2 6 31.9 6.6 4.8 0.9 5.3 1.3 11.5 10 3.6 4.9 6.8 9.2 7.2 9.4 0.4 0.3 3.4-3.6 6.7-8.5 3.3-4.9 6.5-9.2 6.9-9.5 1.4-0.8 63.4-13.8 63.8-13.3 0.2 0.2-4.4 7.8-10.2 16.8l-10.6 16.4-24.9 8.5c-20.6 6.9-25 8.8-25.4 10.5-0.3 1.1-1.8 7.6-3.4 14.5-1.6 6.9-3.1 11.8-3.4 11-0.3-0.8-1.9-7.4-3.7-14.6l-3.1-13-24-8.2c-13.1-4.5-24.3-8.2-24.8-8.2-0.8 0-22.1-32.4-22.1-33.6 0-0.6-2.1-1 27.6 5.2z"/>
		<path id="Layer" class="s0" d="m676.7 716c0.8-0.1 105 84.6 105.5 85.9 0.4 0.9 3.9 16.2 7.8 34.1 3.9 17.9 8.8 40.6 11 50.5 13.3 60.8 17 78 17 79.2 0 0.8-9.3 16.6-20.7 35.1-37.6 61.3-66.6 108.6-70.7 115.5-2.3 3.7-4.4 6.7-4.8 6.7-0.5 0-0.8-5.3-0.8-11.8 0-6.4-0.2-27.5-0.5-46.7-0.3-19.3-1-86.2-1.5-148.8l-1-113.8-27-32.9c-14.8-18.1-27-33.4-27-34 0-0.6 2.8-5.1 6.3-10 3.4-4.9 6.3-8.9 6.4-9z"/>
		<path id="Layer" class="s0" d="m269.2 718c0.6 0 11.6 15.4 12.4 17.5 0.3 0.6-11.3 15.9-25.7 34l-26.1 33 0.7 159.2c0.4 87.6 0.5 159.3 0.2 159.3-0.3 0-12.8-19.7-27.8-43.8-15-24-36.8-58.9-48.4-77.6l-21.2-33.8 5.4-26.2c3-14.3 8.5-41.2 12.3-59.6 3.8-18.4 8.9-43.4 11.4-55.4 2.5-12.1 5.1-22.5 5.8-23.2 0.7-0.7 23.6-19.8 50.8-42.3 27.2-22.6 49.8-41 50.2-41.1z"/>
		<path id="Layer" class="s0" d="m659 742.7c0.4 0.4 11.9 14.6 25.7 31.4l25 30.5 0.7 56c1.2 111.5 1.8 201.9 1.3 201.4-0.3-0.3-11.8-29.5-25.7-65-13.9-35.5-29.2-74.6-34-87-27.8-71-41-104.9-41-105.2 0-0.2 9.2-8.6 20.5-18.8l20.5-18.5v-8.6c0-8 0.2-8.8 3.1-12.8 1.8-2.3 3.5-3.9 3.9-3.4z"/>
		<path id="Layer" class="s0" d="m287.6 743c0.1 0 1.9 2.2 3.8 4.9 3.1 4.1 3.8 6.1 4.3 11.6l0.6 6.7 19.9 18.1c10.9 9.9 19.8 18.4 19.8 18.9 0 0.4-5.7 15.5-12.6 33.5-13.3 34.8-15.1 39.4-46.4 121.3-34.7 90.7-37.5 97.9-37.6 97.7-0.1-0.1-0.5-56.5-0.9-125.2l-0.7-125 24.8-31.3c13.6-17.1 24.9-31.2 25-31.2z"/>
		<path id="Layer" class="s0" d="m472.4 798.1c4.7-0.2 27.7 6.2 27.2 7.5-0.3 0.7-2.1 3.5-4.1 6.3l-3.7 5.1h-18.6-18.7l-3.8-6.1c-2.1-3.4-3.7-6.2-3.5-6.4 0.2-0.2 5.3-1.6 11.3-3.3 6.1-1.7 12.3-3 13.9-3.1z"/>
		<path id="Layer" class="s0" d="m348.6 804c1.1 0 17.9 1.6 37.4 3.5l35.5 3.4 8.4-2.1c7.6-1.9 8.5-2 9.5-0.5 0.6 0.8 3.2 5 5.9 9.1l4.8 7.6h23.2 23.2l5.5-8.1c3-4.5 5.8-8.6 6.1-9.1 0.5-0.7 3.3-0.4 8.5 1l7.9 2.2 37.5-3c20.6-1.6 37.5-2.8 37.6-2.7 0.1 0.1-1 6.4-2.5 14.1l-2.6 13.9-36.5 25.3-36.5 25.4h-47.5-47.6l-33.9-23.6c-18.7-13-35.4-24.7-37.1-26-2.9-2.1-3.3-3.2-5.4-14.1-1.2-6.5-2.4-12.8-2.7-14.1-0.4-1.7-0.1-2.2 1.3-2.2z"/>
		<path id="Layer" class="s0" d="m340.7 816.3c0.2 0.2 1.2 5 2.3 10.7 1.1 5.7 2.1 10.4 2.2 10.5 0.2 0.1 17.6 12.3 38.8 27 29.1 20.3 39.4 27 42.3 27.4l3.9 0.6-25 18-25 18-7.6 39c-4.2 21.4-10.6 53.6-14.1 71.5-3.5 17.9-9.1 46.4-12.5 63.5-5.2 26.4-7.3 34.7-14.2 56-4.4 13.7-8.3 25.4-8.7 25.8-0.4 0.4-13.4-18-28.8-41-15.5-23-33.1-49.2-39.2-58.2-6.1-9.1-11.1-16.8-11.1-17.2 0-0.5 9.3-25 20.6-54.6 29.1-76.1 45.1-117.8 56.6-147.8 5.4-14.3 12-31.3 14.5-37.8 2.5-6.5 4.7-11.6 5-11.4z"/>
		<path id="Layer" class="s0" d="m680.7 1005.7l25.5 65.3-39.4 57.9c-21.6 31.9-39.5 58-39.8 58.1-1.1 0-19.2-56-21-65-1-5.2-6-28.4-11-51.5-16-74-30-139.2-30-139.7 0-0.3-11.3-9-25-19.4l-25.1-18.9 4.7-0.3c5.2-0.4 4.3 0.2 59.6-38.4 21.5-15 22.8-16.1 23.4-19.6 0.3-2 1.2-6.8 2-10.5 0.8-3.8 1.4-7.1 1.5-7.5 0-1 0.7 0.6 74.6 189.5z"/>
		<path id="Layer" class="s0" d="m471.9 894c12.7 0 23.1 0.3 23.1 0.7 0 0.3-4.8 15.1-10.6 32.7-9.6 29-12.4 36.4-12.4 32.8 0-0.9-19.6-56.9-22.5-64.5-0.7-1.6 0.8-1.7 22.4-1.7z"/>
		<path id="Layer" class="s0" d="m440.3 894.9l1.2 2.8c0.6 1.5 7.1 19.8 14.5 40.5l13.3 37.8h3.8 3.8l13.3-40.5c9-27.5 13.7-40.3 14.5-40 0.7 0.2 12.9 9.2 27 19.9l25.8 19.4 2.8 13.4c2.6 12.1 11.1 51.7 32.5 150.9l7.9 36.7-10.3 38.8c-10.4 38.7-10.4 39-14.4 69.9-2.2 17.1-4 31.7-4 32.5 0 3.2-2.3-1.8-12.9-27.9l-11.1-27.4 2-44.6c1.1-24.5 2-47.3 2-50.6v-6l-11.3-14.5c-46.8-59.9-66.3-84.7-66.9-85.1-0.4-0.2-18 22.1-39.1 49.6l-38.4 50 1.8 27c1 14.8 2.3 36.4 3 48l1.2 21-8.3 22.5c-4.5 12.4-9.7 26.5-11.5 31.5-2.7 7.3-3.4 8.5-3.9 6.5-0.3-1.4-2.4-16.1-4.6-32.7-4.1-29.9-4.2-30.4-15-70l-10.9-39.8 10-51c5.5-28.1 12.9-65.9 16.5-84 3.6-18.2 7.9-40.2 9.6-49 1.7-8.8 3.5-16.5 4-17.2 0.5-0.7 11.2-8.5 23.6-17.4 12.5-9 24-17.3 25.6-18.7z"/>
		<path id="Layer" class="s0" d="m475 1035.7c1 1 11.5 14.3 23.4 29.5l21.5 27.7-22.2 27.3c-12.2 15-22.7 27.3-23.3 27.3-0.6 0-8.5-9-17.4-20-9-11-19.1-23.4-22.6-27.6l-6.2-7.5 22.5-29.3c21.7-28.2 22.6-29.2 24.3-27.4z"/>
		<path id="BRITOSPA" class="s1" aria-label="BRITOSPA"  d="m236.8 924.1c0 0-0.3-0.1-0.3-0.1 0 0 0.3 0.1 0.3 0.1zm-9.6-1.6c0 0-0.3 0-0.3 0 0.9-0.1 1.8-0.2 2.5-0.2 0.7 0 1.4-0.1 2.1-0.1 0 0-0.7-0.2-0.7-0.2-2.6-0.6-6.3-1-11.1-1.4-0.4 0.2-0.7 0.5-1.1 0.7-0.3 0.3-0.6 0.5-0.9 0.7-0.2 0.1-0.4 0.3-0.6 0.4-0.1 0.1-0.3 0.3-0.5 0.4 0 0 10.6-0.3 10.6-0.3zm-32.3 30.7c0.1-0.1-0.7-0.6-2.5-1.5-1.7-0.9-4.2-2.2-7.4-4 0 0-7.4 5.8-7.4 5.8 1 0 2 0.1 3.1 0.3 1.1 0.1 2.1 0.2 3.1 0.2 6.7 0.1 10.4-0.2 11.1-0.8zm74-27.1c-4.1 4.9-9.2 9.2-15.2 12.8-5.9 3.5-12.9 6.1-20.9 7.7-0.3 2.8-1.1 5.7-2.6 8.8-1.4 3.1-3.4 6.3-6.1 9.6-5.3 6.2-11.7 11.3-19.2 15-7.4 3.6-15.9 5.3-25.5 5.1-7.3-0.4-14-1.8-20.2-4.3-6.1-2.7-11.8-6.4-17-10.8-4.4-3.9-6.7-7.5-7.1-10.9-3.1-4.8-2-9.4 3.7-13.8 0.5-0.4 1.5-1 3-1.9 1.5-1 3.7-2.3 6.6-3.9 2.5-1.4 5.5-3.3 9-5.6 3.7-2.3 8-5.1 12.9-8.4 3.8-2.5 7.3-4.8 10.4-6.8 3.1-2 5.9-3.8 8.4-5.4-0.5-2.3 1.7-4.9 6.5-7.8 4.5-2.8 9.8-4.8 15.9-6.1 6-1.4 12.9-2.2 20.7-2.3 6.7-0.2 14.2 0.2 22.4 1.1 6.8 0.7 11.9 2 15.3 4 3.5 2.1 5.4 4.8 5.6 8.4 0 2.3-0.5 4.8-1.5 7.3-1 2.6-2.7 5.4-5.1 8.2zm-5.3-1c3.7-4.3 5.5-8.3 5.4-12.1 0-2.9-1.6-5.3-4.7-7.1-3.1-1.7-7.6-3-13.7-3.7-4-0.5-7.8-0.9-11.5-1.1-3.6-0.2-7-0.3-10.3-0.3-6.3 0-11.9 0.5-16.5 1.5-4.7 0.9-8.6 2.3-11.6 4.3-3.8 2.5-5.1 4.6-3.7 6.3-2.6 1.7-5.5 3.7-9 6.1-3.3 2.4-7.2 5.1-11.7 8.2-4.8 3.5-9.2 6.6-13 9.1-3.8 2.6-6.9 4.7-9.5 6.4-2.7 1.6-4.8 3-6.2 4-1.5 1-2.4 1.7-2.9 2.1-4.2 3.6-4.9 6.9-2.3 9.7-0.2 2.3 1.3 4.8 4.6 7.5 4.7 3.6 9.9 6.6 15.5 8.9 5.8 2 11.9 3.2 18.4 3.4 8.1 0.1 15.3-1.2 21.5-3.9 6.3-2.8 11.6-6.8 16-11.7 3.2-3.6 5.3-7.2 6.4-10.8 1-3.4 0.9-6.5-0.2-9.2 8.9-0.8 16.7-2.8 23.2-5.8 6.5-3.1 11.7-7 15.8-11.8zm-19.6-2.1c-1.7 1.7-8.2 3.1-19.6 4 0 0 0.1-0.2 0.1-0.2-3.4 0.2-6.8 0.3-10 0.3-3.3-0.1-6.6-0.1-10-0.2 0 0-0.5 0-0.5 0 0.5-0.4 1-0.8 1.6-1.3 0.6-0.4 1.4-0.9 2.3-1.6 0.4-0.2 0.8-0.5 1.1-0.8 0.4-0.3 0.8-0.6 1.3-0.9 0.4-0.4 0.8-0.7 1.2-0.9 0.4-0.4 0.9-0.7 1.3-0.9 1-0.7 1.9-1.4 2.6-1.9 0.8-0.7 1.5-1.2 2-1.6 0 0 1-0.8 1-0.8 3.9 0.2 7.2 0.4 10.1 0.6 3 0.2 5.4 0.4 7.1 0.8 1.4 0.3 2.7 0.6 3.8 1.1 1.1 0.4 2.1 0.9 3 1.4 1.9 1.2 2.4 2.1 1.6 2.9zm-43.6 32.6c-1.5 1.3-3.7 2.4-6.8 3.1-3 0.6-7 0.9-12 0.6-2.8-0.1-5.6-0.4-8.4-0.9-2.8-0.6-5.7-1.3-8.7-2.1 0 0 20.7-15.3 20.7-15.3 13.4 6.6 18.5 11.4 15.2 14.6zm60.7-30.9c-4.2 4.6-9.8 8.5-16.8 11.3-7.2 2.7-15.8 4.3-25.9 4.5 2.7 2.4 3.8 5.5 3.3 9.3-0.4 3.8-2.4 7.8-6.1 11.8-3.8 4.3-8.6 7.7-14.3 10.2-5.6 2.3-12.2 3.5-19.5 3.5-6.4-0.3-12.2-1.4-17.6-3.3-5.4-2-10.3-4.7-14.7-8-3-2.3-4-4.3-3.2-6-2.7-1.8-2.2-4.4 1.5-7.6 0.8-0.8 3.7-2.9 8.7-6.2 2.7-1.7 5.9-4 9.7-6.7 3.8-2.7 8.1-5.8 13-9.4 4.9-3.6 9.2-6.7 13-9.3 3.6-2.6 6.7-4.7 9.2-6.4-2-1.4-1.3-3.2 1.9-5.3 4.7-3.1 12.6-4.5 23.7-4.3 6.6-0.1 13.7 0.4 21.4 1.4 5.8 0.8 10.1 1.9 13 3.6 2.9 1.6 4.4 3.7 4.5 6.4 0 3.2-1.6 6.7-4.8 10.5zm-14.5-1.2c1.9-2 1.5-3.8-1.2-5.4-1.9-1.2-4.4-2.1-7.5-2.6-4.1-0.8-10.8-1.3-20.4-1.5-0.8 0.8-1.7 1.6-2.7 2.4-1.5 1.2-3.9 2.9-7.2 5.2-3.2 2.2-5.6 4-7.2 5.1 0 0-2.6 2-2.6 2 8.5 0.4 16.9 0.6 25.2 0.6 13-0.9 20.8-3 23.6-5.8zm-43.5 33.3c2.7-2.6 2.4-5.5-0.6-8.6-3-3.1-8.7-6.5-17.3-10.3 0 0-6.8 4.8-13.7 9.7-6.8 4.8-13.5 9.6-13.5 9.6 8.1 2.7 15.7 4.3 22.8 4.9 11.1 0.4 18.5-1.5 22.3-5.3zm113.4-5.6c0.4-0.6 0.7-1.5 0.8-2.6 0 0.1-0.1 0.1-0.1 0 0-0.2-0.1-0.5-0.3-0.8-2-3.6-6.7-6.5-13.9-8.8-2.2 2.9-4.8 6.4-7.8 10.5-3.1 4.1-6.6 8.9-10.7 14.4 4.8-0.6 9.5-1.6 14.3-3.1 10-3 15.9-6.2 17.7-9.6zm31.7 1.6c-4 8.8-9.7 16.8-17.1 23.9-3.8 3.6-8 6.9-12.7 9.9-4.7 2.9-9.9 5.5-15.5 7.7-0.5 1.5-1 3.1-1.5 4.7-0.3 1.5-0.8 3.3-1.3 5.2-1 3.5-1.8 7.3-2.6 11.4-0.7 4.2-1.2 8.7-1.4 13.5-6.9 8.7-13 14.9-18.2 18.5-5.2 3.6-9.4 4.7-12.5 3.3-2.8-1.3-4.6-4.3-5.4-8.9-0.7-4.4-0.4-10.5 1-17.9 0.3-1.3 0.5-2.7 0.8-4.1 0.3-1.4 0.6-2.8 1-4.3 0 0 0 0.3 0 0.3 0.2-1.4 0.5-2.8 0.8-4.3 0.4-1.4 0.7-2.6 0.9-3.5 0.1-1.1 0.3-2.1 0.5-3.3 0.1-1.2 0.3-2.4 0.4-3.6-1.2-0.1-2.4-0.2-3.6-0.4-1.1-0.2-2.4-0.4-3.6-0.5-1.7 2.8-3.5 5.9-5.6 9.1-2 3.2-4.1 6.8-6.4 10.7-11.1 3.3-18.7 3.7-22.6 1.6-4-2.3-6.1-5.5-6.1-9.5-0.1-3.9 1.9-8.8 5.9-14.6 3-4.3 6.7-9.5 11.2-15.6 4.4-5.9 9.6-12.7 15.5-20.1 5.8-7.3 10.7-13.3 14.7-18.3 3.9-4.8 7.1-8.8 9.6-12 0 0 2.3-2.9 2.3-2.9-1.4-3.4-0.1-7.4 3.6-12 3.9-4.9 8.2-8.3 13.1-10.3 4.7-2.1 10.1-2.9 16.1-2.4 1.1 0.1 2.5 0.3 4 0.6 1.6 0.2 3.4 0.5 5.4 1 6.1 1.2 11.3 2.6 15.6 4.2 4.3 1.5 7.8 3.1 10.3 5 5 3.8 7.9 8.7 8.5 14.7 0.7 6.3-1 14-5.1 23.2zm-5.3-0.8c3.5-7.5 5-13.9 4.4-19.2-0.5-5.2-3-9.4-7.3-12.7-2.3-1.8-5.6-3.5-9.7-5.1-4.2-1.5-9.2-2.9-15.2-4.3-2-0.4-3.8-0.7-5.3-1-1.6-0.3-2.8-0.5-3.7-0.6-4.5-0.4-8.5 0-11.8 1.4-3.4 1.3-6.3 3.6-8.9 7-2.9 3.7-3.4 6.7-1.4 8.9-0.2 0.3-0.3 0.6-0.6 1-0.2 0.3-0.4 0.6-0.6 0.8-0.7 1-1.4 1.9-1.9 2.6-0.5 0.7-0.9 1.3-1.3 1.9-2.5 3.2-5.7 7.3-9.5 12.3-4 5.2-8.8 11.4-14.5 18.7-5.7 7.8-10.8 14.7-15.3 20.8-4.4 6.2-8.1 11.6-11.1 16-4.4 6.7-4.6 11.1-0.6 13.2 3 1.5 7.8 1.3 14.3-0.6 2.8-4.7 5.4-8.8 7.7-12.3 2.4-3.5 4.5-6.6 6.4-9.4 2.6 0.5 5.3 0.9 8 1.2 2.9 0.2 5.8 0.3 8.9 0.2-0.1 0.3-0.3 0.7-0.4 1.1 0 0.4-0.1 0.9-0.2 1.3-0.2 2.2-0.5 4.3-0.8 6.1-0.2 1.9-0.4 3.6-0.6 5-0.4 1.2-0.7 2.5-1 4-0.2 1.3-0.4 2.7-0.6 4-0.8 3-1.5 5.7-1.9 8.1-1.8 10.8-1.3 17.1 1.7 18.4 1.9 0.8 4.3 0.1 7.4-2.1 3.2-2.2 7-6 11.3-11.3 0.3-3.4 0.8-6.9 1.5-10.6 0.8-3.8 1.7-7.7 2.9-12 1.2-3.8 2.1-7.1 3-9.9 0.9-2.7 1.6-4.8 2.1-6.5 5.6-1.9 10.8-4.1 15.5-6.6 4.6-2.5 8.8-5.4 12.5-8.4 7.3-6.2 12.8-13.4 16.6-21.4zm-20.9 0.2c-3.5 6.4-11.5 11.8-24.4 15.6-4.3 1.2-8.6 2.2-12.9 2.8-4.3 0.7-8.6 1-12.9 1.1 8.1-10.5 14.6-18.9 19.6-25.5 4.9-6.3 8.6-11.1 11-14.5 5.4 1.4 9.8 3 13.2 4.8 3.4 1.9 5.9 4 7.3 6.5 0.3 0.6 0.5 1.1 0.6 1.6 0.2 0.5 0.3 0.9 0.2 1.4-0.1 2.1-0.6 4.2-1.7 6.2zm18.1-0.5c-3.6 7.4-8.9 14.1-16.2 19.8-3.7 2.9-7.9 5.6-12.5 7.9-4.7 2.2-9.9 4.2-15.5 5.8-0.3 1.3-2.3 7.8-6.1 19.7-2.5 8.7-4.1 15.9-4.5 21.5-6.1 7.2-10.4 10.4-12.8 9.4-1.7-0.7-1.8-5.5-0.3-14.2 1.2-5.5 2.3-10.8 3.4-16 0.4-3.9 1.2-9.7 2.3-17.3-8 0.6-15.1 0.1-21.3-1.4-4.3 5.8-9.4 13.3-15.3 22.6-4.4 1.3-7.8 1.3-10.2 0.2-2-1-1.6-3.6 1-7.8 3-4.4 6.6-9.9 11.1-16.2 4.3-6.1 9.4-13.1 15.1-20.8 5.6-7.5 10.4-13.8 14.4-19.1 3.9-5.2 7.1-9.4 9.5-12.7 1.1-1.5 3-4.2 5.8-8.1-2.4-1.7-2.4-4.1-0.1-7.2 3.8-4.9 9.3-7 16.5-6.2 1.8 0.2 4.7 0.8 8.8 1.7 5.9 1.4 10.8 2.8 14.9 4.3 4 1.6 7.2 3.2 9.5 5 3.9 3.1 6.1 7 6.5 11.8 0.5 4.8-0.8 10.6-4 17.3zm-15.4 0.9c1.4-2.8 2.2-5.5 2.3-8.1 0.1-1.2-0.3-2.6-1.1-4.1-1.6-2.8-4.4-5.1-8.4-7.1-4-2-9.2-3.7-15.5-5-2 2.8-5.8 7.8-11.5 15.2-3 3.8-6.5 8.3-10.5 13.4-4.2 5.3-8.9 11.3-14.2 18.1 4.9 0.4 10 0.3 15.2-0.3 5.2-0.6 10.5-1.7 15.9-3.2 7.2-2.2 13.2-5 17.8-8.2 4.6-3.2 7.9-6.8 10-10.7zm84.8-26.4c-2.9 9.3-8.3 15-15.9 16.7 0 0-2.2 6.4-2.2 6.4 0 0-6.5 19-6.5 19-0.9 2.6-2.1 6-3.6 10.1-1.5 4.2-3.3 9.1-5.3 14.7-1.9 5.6-3.6 10.5-5.1 14.7-1.4 4.2-2.6 7.9-3.6 11.1 0 0-1.3 3.9-1.3 3.9 5.6 4.6 6.4 13.8 2.4 28-2.8 9.7-6.2 16.8-10.2 21-4 4.2-8.7 5.6-14 4.2 0 0-20.2-5.8-20.2-5.8-1.8-0.6-3.2-2-4.2-4.1-0.9-2.1-1.4-4.7-1.5-7.6-0.1-2.9 0.1-6 0.6-9.3 0.6-3.3 1.5-6.6 2.7-9.7 4.6-12.1 10.9-18.9 18.8-21.1 0.2-0.3 0.3-0.7 0.4-1.1 0.1-0.4 0.3-0.8 0.5-1.2 3.2-10 6.8-21 10.9-32.9 1.9-5.7 4-11.6 6.1-17.6 2.1-5.9 4.3-11.8 6.4-17.8 0.4-1 0.8-1.9 1.1-2.9 0.3-1 0.7-2 1-2.9-2.8-1.1-4.4-3.2-4.8-6.1-0.4-3 0.4-6.7 2.4-11.1 1.5-3.4 3.3-6.2 5.4-8.3 2-2 4.2-3.6 6.8-4.6 2.5-1.2 5.2-1.9 8.2-2.2 3-0.4 6.2-0.5 9.6-0.3 0 0 6 0.2 6 0.2 9.6 0.3 12.7 5.7 9.1 16.6zm-4.3-0.2c2.3-6.8-0.1-10.2-6.9-10.5 0 0-6.1-0.2-6.1-0.2-2.8-0.2-5.4-0.1-7.9 0.1-2.4 0.1-4.6 0.6-6.5 1.3-2 0.7-3.7 1.8-5.2 3.1-1.5 1.4-2.7 3.1-3.7 5.4-2.8 6.6-1.3 10.2 4.8 10.7 0 0 0.2 0.1 0.2 0.1-0.6 1.4-1.3 3.1-2 5-0.7 2-1.5 4.2-2.3 6.7-2.1 6.1-4.2 12.1-6.2 17.9-2 6-4 11.9-6 17.7-3.9 11.8-7.4 22.8-10.5 32.9-1.5 4.4-2.8 8.5-3.8 12.1-7.6 0.1-13 4.3-16.1 12.8-0.7 1.8-1.2 3.7-1.5 5.6-0.3 1.9-0.4 3.6-0.4 5.2 0.1 1.7 0.3 3.1 0.8 4.3 0.5 1.1 1.3 1.8 2.2 2.1 0 0 19.9 5.3 19.9 5.3 6.8 1.7 11.9-3.1 15-13.9 3-10 1.3-16.1-5-18.7 0.8-3 1.6-5.5 2.3-7.6 0.6-2 1.2-3.8 1.7-5.4 1.1-3.2 2.4-7 3.9-11.4 1.5-4.3 3.3-9.3 5.4-15 2.1-5.5 3.8-10.2 5.2-14.2 1.4-3.8 2.5-7 3.5-9.6 0 0 6.6-18.9 6.6-18.9 0.3-1 0.7-2 1.1-3.3 0.5-1.2 1.1-2.8 1.9-4.5 0.1-0.5 0.3-0.9 0.5-1.4 0.2-0.5 0.4-0.9 0.6-1.3 0.1-0.3 0.2-0.6 0.3-0.9 0.1-0.4 0.2-0.6 0.3-0.9 7.1-0.5 11.8-4.1 13.9-10.6zm-2.1-0.1c-1.7 4.9-6 7.4-12.8 7.3-0.5 1.5-1.5 4-2.9 7.5-1.4 3.5-2.4 6.2-3 8 0 0-6.7 18.8-6.7 18.8-1.9 5.1-4.8 12.9-8.8 23.6-4.2 11.2-7.4 20.1-9.5 26.4-1.3 3.9-3.1 9.9-5.5 18.2 6.4 1.7 8.5 6.1 6.3 13.4-2.1 6.9-5.6 9.8-10.4 8.7 0 0-19.7-5.1-19.7-5.1-1.1-0.4-1.7-1.7-1.7-4 0.1-2.2 0.5-4.5 1.4-6.9 2.3-6.4 7.1-9 14.4-7.9 3.5-11.3 7.6-24.9 12.5-40.2 2.3-7.2 4.8-14.9 7.4-22.7 2.6-7.6 5.2-15.5 7.9-23.4 2.7-7.5 4.5-12.5 5.6-15-1 0.1-1.8 0-2.5 0-4.6-0.4-6-2.8-4.1-7.3 1.4-3.2 3.8-5.3 7.3-6.1 3.5-0.9 7.7-1.2 12.8-0.9 0 0 6 0.3 6 0.3 5.6 0.3 7.6 2.7 6 7.3zm80.5 4.1c-0.9 6.7-3.5 12-7.8 15.7-4.3 3.9-10.3 6-18 6.3-0.4 1.9-0.8 3.9-1.4 6-0.5 2.1-1 4.2-1.5 6.4-0.5 1.9-1 4-1.5 6.1-0.6 2.1-1.1 4-1.7 5.8-0.5 2.3-1.1 4.6-1.7 6.9-0.6 2.3-1.2 4.8-1.8 7.3 0 0 0.3-0.9 0.3-0.9-0.8 3.6-1.8 8.1-3 13.6-1.3 5.5-2.8 11.8-4.4 18.8-1.6 7.2-3.4 15.2-5.3 23.8-1.9 8.9-3.9 18.1-5.9 27.7-4.3 4.7-8.2 8.2-11.6 10.5-3.4 2.3-6.1 3.3-8.1 3.1-4.2-0.6-6.9-3.3-8-8-0.9-4.8-0.5-11.3 1.3-19.4 1.1-5.1 2.6-11.3 4.4-18.6 1.7-7.3 3.7-15.5 5.8-24.5 2.1-8.6 3.9-15.8 5.4-21.7 1.5-5.8 2.7-10.5 3.6-14.2 0.2-1.2 0.5-2.5 0.9-4 0.3-1.6 0.7-3.3 1.1-5.3 0.2-0.7 0.4-1.5 0.5-2.4 0.2-0.8 0.4-1.7 0.6-2.4 0.2-1 0.4-1.8 0.5-2.5 0.2-0.7 0.3-1.3 0.5-2 0.5-1.8 0.9-3.5 1.2-5 0.4-1.6 0.8-2.9 1-3.9 0 0 0.4-1.6 0.4-1.6-2.5 0-5.3 0.1-8.2 0.1-2.9 0-5.7 0.1-8.5 0.3-2.5-10.4-2.8-18.2-1.1-23.7 1-3.3 2.5-5.9 4.4-7.8 2-2 4.4-3.5 7.2-4.4 1.1-0.4 2.4-0.7 3.8-0.9 1.6-0.2 3.4-0.5 5.6-0.8 3.5-0.5 6.8-1 9.9-1.3 3.1-0.4 6-0.6 8.5-0.8 4.8-0.5 8.8-0.8 11.9-1 3.3-0.2 5.7-0.3 7.4-0.3 5.4 0 9.2 1.5 11.4 4.5 2.3 3.1 2.9 7.9 1.9 14.5zm-4.8 0.1c1.4-8.8-1.9-13-9.7-13-1.6 0-3.9 0.1-7.1 0.3-3.2 0.2-7.2 0.6-12.1 1-2.6 0.2-5.4 0.5-8.4 0.9-3.1 0.3-6.3 0.7-9.8 1.2-2.2 0.3-4 0.6-5.5 0.9-1.5 0.2-2.6 0.5-3.6 0.8 0 0 0.2 0.1 0.2 0.1-3.2 0.8-5.3 2.9-6.3 6.3-1.1 3.8-0.9 9 0.8 15.8 3.7-0.1 7.3-0.2 10.6-0.4 3.4-0.1 6.3-0.2 8.6-0.2-0.4 1.4-0.8 2.9-1.2 4.6-0.4 1.6-0.8 3.3-1.2 5-0.2 1.1-0.5 2.3-0.9 3.8-0.3 1.5-0.7 3.1-1 4.9-0.2 0.7-0.4 1.5-0.6 2.3-0.1 0.7-0.2 1.5-0.4 2.4-0.2 0.8-0.4 1.6-0.6 2.4-0.1 0.8-0.2 1.6-0.4 2.3-0.4 1.9-0.8 3.7-1.2 5.4-0.3 1.6-0.6 2.9-0.8 4.1-0.9 3.8-2 8.5-3.4 14.3-1.5 5.9-3.2 13.2-5.2 22-2.2 9.2-4.1 17.4-5.7 24.6-1.7 7.3-3 13.5-4.1 18.6-1.7 8.2-0.7 12.7 3 13.1 2.9 0.4 7-2.2 12.3-7.7 4.2-18.6 7.8-34.3 10.8-47.4 3-12.6 5.3-22.4 7.1-29.7 0.7-2.2 1.3-4.5 1.9-6.8 0.5-2.3 1.1-4.6 1.8-6.8 0.6-2.1 1.1-4.1 1.6-6.1 0.5-2 1-3.9 1.5-5.8 0 0 0 0.2 0 0.2 1-3.7 1.9-7.2 2.6-10.4 0.8-3.2 1.5-6.1 2.1-8.8 0 0 1.5 0.1 1.5 0.1 6.9 0.1 12.2-1.1 16-3.6 3.8-2.4 6-6.1 6.8-10.7zm-2.5 0c-0.6 3.9-2.9 6.7-6.8 8.5-4 1.8-9.6 2.5-16.8 2-1.2 5.6-3 13.1-5.5 22.4-2.2 8-4.5 16.4-7 25.3-1.7 7.2-3.9 16.4-6.7 28.1-2.9 12.2-6.5 27.3-10.7 45.5-3.6 3.7-6.5 5.5-8.6 5.2-1.6-0.1-2-2.3-1.2-6.3 2.1-10 5.3-24.6 9.4-42.8 3.9-17.1 6.6-29.2 8.4-36.8 0.7-3.3 1.7-8.1 3-14.4 1.3-6.1 2.3-10.5 2.9-13.3 1.1-5 2.3-9.4 3.5-13.3-4.5-0.1-11.4 0.1-20.6 0.5-1.3-5-1.5-9-0.6-12 0.4-1.6 1.6-2.7 3.6-3.3 1.6-0.6 4.4-1.1 8.4-1.7 7-0.9 13.2-1.6 18.4-2 9.7-0.9 16-1.4 19.1-1.4 6.2 0.1 8.8 3.2 7.8 9.8zm63.4 58.6c0.1-9.1-0.6-17.5-2.2-25.3-1.5-7.1-3.5-11.7-5.8-14-0.2 0.1-0.5 0.2-0.8 0.4-0.3 0-0.6 0.2-0.9 0.3-1.2 0.4-2.2 0.8-3.2 1-1 0.3-1.8 0.5-2.6 0.6-1.8 1.9-3.6 4.2-5.1 6.8-1.6 2.7-3.1 5.8-4.5 9.3-3.6 8.8-5.7 17.9-6.3 27.4-0.5 6.3-0.4 11.7 0.4 16.1 0 0 0-0.3 0-0.3 0.5 2.9 1.2 5.4 2.1 7.6 1 2.2 2.1 4.2 3.5 6 0 0-0.1 0-0.1 0 1.5 1.7 3 2.9 4.6 3.8 1.6 0.7 3.3 1 5.1 0.9 2.1-0.2 4.1-1.3 5.9-3.3 1.9-2.2 3.5-5.3 4.9-9.5 1.7-4.4 2.9-8.8 3.7-13.4 0.8-4.6 1.2-9.4 1.3-14.4zm27.2-21.4c0.4 11.5 0.1 23-1.1 34.4-1.3 12-3.6 23.9-6.8 35.7-2.2 8.1-4.8 15.4-7.6 22-2.9 6.7-6.1 12.4-9.6 17.2-7.1 9.8-15.3 15.2-24.5 16-2.4 0.2-4.9 0-7.4-0.7-2.5-0.7-5-1.8-7.4-3.1-5.6-3.5-10.3-8.7-14.2-15.3-3.8-6.5-6.7-14.4-8.9-23.5-2-8.6-3.2-17.5-3.6-26.6-0.3-8.8 0.1-17.9 1.3-27 1.6-12.4 4.1-23.6 7.5-33.7 3.3-9.6 7.5-18.5 12.6-26.7 2.8-4.5 5.7-8.4 8.6-11.6 2.8-3.2 5.7-5.8 8.6-7.8 5.8-4.1 11.8-6.1 18.1-6.3 4.6-0.1 8.8 0.9 12.6 3 3.8 2.1 7.3 5.5 10.4 10.2 0 0 0-0.1 0-0.1 2.8 3.9 5 8.5 6.8 13.7 1.8 5.4 3 11.6 3.7 18.6 0 0 0.1-0.2 0.1-0.2 0.1 1.5 0.3 3.2 0.4 5.2 0.2 2 0.3 4.2 0.4 6.6zm-5.5 0.6c-0.1-2.2-0.2-4.2-0.3-6-0.1-1.8-0.2-3.4-0.3-4.9 0 0 0 0.1 0 0.1-0.5-6.4-1.6-12-3.2-16.8-1.5-4.6-3.4-8.8-5.8-12.4-5.3-8-11.8-11.7-19.6-11.5-5.7 0.2-11 2.2-16.1 5.9-5.1 3.8-10.2 9.7-15.2 17.9-4.7 7.8-8.5 16.2-11.6 25.2-3 9.4-5.2 19.7-6.5 31-1 8.1-1.3 16.1-0.9 23.7 0.4 8 1.5 15.6 3.3 22.9 4 15.3 10.7 26.4 20.1 32.4 4.3 2.4 8.5 3.5 12.7 3.2 7.8-0.7 14.8-5.2 20.8-13.3 6-7.9 10.9-19 14.7-32.8 3.1-10.6 5.2-21.5 6.4-32.4 1.3-10.6 1.7-21.3 1.5-32.2zm-16 20.3c0 5.9-0.4 11.7-1.4 17.2-0.9 5.8-2.3 11.3-4.2 16.6-4.2 12-9.7 18.5-16.4 19.1-4.7 0.3-9-1.9-12.9-6.7-1.9-2.4-3.4-5.2-4.7-8.5-1.3-3.2-2.2-6.7-2.8-10.3-0.5-3.1-0.7-6.3-0.8-9.6-0.1-3.3 0-6.9 0.4-10.6 0.9-11 3.4-21.5 7.5-31.5 3.8-8.7 8.1-15.2 13.1-19.7 0 0 0.6-0.1 0.6-0.1 1.2 0 2.9-0.5 5-1.4 0.9-0.3 1.6-0.6 2.2-0.7 0.7-0.3 1.3-0.4 1.7-0.4 0.4-0.1 0.8 0.2 1.2 0.6 1.8 1.3 3.4 3.4 4.9 6.4 1.4 3 2.7 6.9 3.8 11.7 0.9 4.2 1.6 8.5 2.1 13.1 0.6 4.6 0.8 9.5 0.7 14.8zm13.3-20.1c0.2 10.4-0.3 20.6-1.5 30.7-1.3 10.7-3.4 21-6.2 31.1-3.7 12.6-8.3 22.7-13.7 29.9-5.6 7.3-11.9 11.4-18.9 12-3.9 0.2-7.8-0.7-11.7-3-8.6-5.2-14.7-15.1-18.5-29.2-3.5-13.4-4.3-27.9-2.6-43.2 1.2-10.7 3.3-20.6 6.2-29.7 2.9-8.8 6.5-16.8 10.9-24.3 4.7-7.8 9.5-13.5 14.3-17.1 4.8-3.7 9.8-5.5 15-5.7 7.1-0.2 13 3.2 17.7 10.5 4.6 7 7.4 16 8.5 27.4 0.2 3.1 0.4 6.6 0.5 10.6zm-10.5 19.8c0.1-10.8-1-20.5-3-29.2-2.4-10.1-5.7-16.6-10-19.8-0.9-0.7-1.6-1-2.3-1-1 0-2.5 0.5-4.5 1.3-1.9 0.8-3.4 1.2-4.4 1.2-0.3 0-0.7-0.1-1.2-0.4-5.7 4.9-10.7 12.1-15 22-4.4 10.5-7.2 21.6-8.2 33.5-0.8 8.1-0.6 15.5 0.5 22.3 1.4 8.7 4.1 16 8.4 21.6 4.4 5.5 9.3 8.2 14.8 7.8 7.8-0.7 14.2-8.4 18.9-22.5 4.1-11.5 6.1-23.8 6-36.8zm63.6 25.8c0 0 0.1-0.2 0.1-0.2 0 0-0.1 0.2-0.1 0.2zm22-83c1.4 6.9 1.3 12.4-0.4 16.5-1.6 4.2-4.9 6.8-9.6 7.5-6.8 1.1-11.9-2.5-15.2-10.4-1.6 0.9-3.4 2.3-5.3 4.1-2.8 2.6-4.2 4-4.1 4.1 0 0.7 2.1 2.8 6.3 6.5 0 0-0.1-0.2-0.1-0.2 3.1 2.7 6.3 5.4 9.7 8.3 3.4 2.8 6.7 5.5 9.9 8.1 4.7 4.7 8.5 9.9 11.4 15.4 3 5.8 5 12.1 6.1 19.2 1.2 7.9 1.2 15.7-0.1 23.3-1.2 7.7-3.7 15.2-7.5 22.4-5.9 11.7-13.2 19-21.8 21.5-5.8 1.5-11.6 0.5-17.5-3-5.8-3.6-11.7-9.8-17.6-18.3 0.4-15.7 1.6-27 3.6-34.4 2-7.2 4.8-11 8.5-11.7 0.9-0.1 1.9 0 3 0.4 1.2 0.4 2.4 1.1 3.6 2.3 0 0-0.2-0.3-0.2-0.3 1.6 1.5 3.2 2.6 4.7 3.3 1.5 0.7 3 1.1 4.3 1.2-0.2 0-0.2 0.1-0.2 0.1 0-0.2 0-0.3-0.2-0.5-5.2-4.9-9.6-9.3-13.2-13.1-3.6-3.8-6.3-7.1-8.2-9.9-4.5-6.3-7.9-12.7-10.3-19-2.3-6.2-3.5-12.3-3.8-18.4-0.4-7.8 0.6-14.8 2.8-21 2.2-5.9 5.6-11.2 10.2-15.9 3.8-3.8 7.7-6.6 11.8-8.5 4-1.9 8.1-2.9 12.5-3.2 5.6-0.4 10.9 1.4 16.1 5.3 0 0-0.1-0.1-0.1-0.1 5.6 4.2 9.3 10.2 10.9 18.4zm-4.9 0.6c-0.6-3.2-1.6-6-2.9-8.3-1.4-2.3-3.2-4.2-5.3-6-2.1-1.7-4.2-2.9-6.4-3.6-2.2-0.6-4.4-0.9-6.7-0.7-4 0.3-7.8 1.3-11.4 3-3.6 1.8-7.2 4.4-10.6 8-3.8 4.1-6.7 8.7-8.6 13.9-1.8 5.3-2.6 11.1-2.2 17.6 0.5 10.2 4.5 20.4 12.2 30.4 1.9 2.7 4.6 5.8 7.9 9.3 3.5 3.5 7.7 7.6 12.7 12.2 6.5 5.8 9.9 9.5 10.1 11 0.2 1.3-0.8 2.9-2.8 5.1-1.2 1.1-2.3 2-3.4 2.8-1.1 0.6-2.2 1.1-3.2 1.3-2 0.4-4.1 0.2-6.5-0.6-2.4-0.9-4.9-2.5-7.6-4.8 0 0 0 0.4 0 0.4-1.5-1.5-2.6-2.2-3.4-2-2.1 0.3-3.7 2.8-4.8 7.5-1.2 4.7-1.8 11.8-1.8 21.3 8.7 12.3 18.1 17.4 27.9 14.9 7.1-1.9 13.3-7.9 18.6-17.8 2.8-5.5 4.8-11.3 5.8-17.1 1.1-5.8 1.2-11.7 0.4-17.8-1.6-11-6.3-20.3-13.8-28.2-3.2-2.6-6.6-5.5-10.1-8.5-3.5-3.1-6.9-6.1-10-8.9-5.7-5-8.6-9.2-8.9-12.6-0.3-3.4 1.7-7 6-10.7 2.1-2 4.1-3.4 5.9-4.4 1.7-1.1 3.4-1.7 5-1.8 2.4 8.1 6.2 11.9 11.6 11.2 6.1-0.9 8.2-6.4 6.3-16.1zm-2.5 0.3c1.3 7.5-0.1 11.7-4.4 12.3-4.3 0.6-7.4-3.1-9.2-10.7 0 0-0.3-0.3-0.3-0.3 0 0 0.3 0.3 0.3 0.3-0.6-0.3-1.4-0.5-2.2-0.4-3.5 0.4-7.5 2.5-12 6.5-5.1 4.5-7.5 9.2-7 14.1 0.4 4.7 3.8 10 10.3 15.9 6.2 5.6 12.5 11.1 19 16.7 7.4 7.8 11.8 16.4 13 26 1.4 10.5-0.4 20.5-5.5 30-4.8 8.7-10.4 14-16.8 15.7-8.9 2.2-17.1-1.8-24.4-11.7 0.2-13.3 1.5-19.9 4-20.4 0.3 0 0.9 0.4 1.8 1.4 5.8 5 11.1 7 15.7 6 2.6-0.6 5.2-2.4 7.7-5.2 3.3-3.3 4.6-6.7 4.2-10.4-0.4-3.3-4.3-8.3-11.8-15-9.9-8.8-16.6-15.6-20.2-20.3-7.1-9.1-10.8-18.2-11.3-27.1-0.4-5.8 0.3-11.1 2-16 1.7-4.6 4.3-8.9 8-12.8 3.1-3.4 6.4-5.9 9.9-7.6 3.4-1.7 7-2.7 10.7-3 4.1-0.4 8 0.9 11.6 3.8 3.6 2.8 5.9 6.9 6.9 12.2zm66.9 8.6c0 0 0 0.2 0 0.2 1.3-4.3 1.5-7.5 0.7-9.6 0 0.1-1.8 0-5.2-0.2-2.1-0.1-4.2 0-6.5 0.2-2.3 0.1-4.7 0.3-7.2 0.7 1 3.2 2 7 3.1 11.2 1.1 4.4 2.3 9.4 3.6 15.1 1.1-1 1.9-1.8 2.4-2.3 0.6-0.5 1-0.8 1-1 2.1-2.1 3.7-4.3 5-6.7 1.4-2.3 2.4-4.9 3.1-7.6zm28.9-15.7c2 4.1 3.1 8.5 3.3 13 0.3 4.8-0.5 9.8-2.1 15.1-1.3 3.6-3.5 7.9-6.6 12.8-3.1 5.1-7.4 10.8-12.8 17.2-1.6 2-3.5 4.5-6 7.4-2.4 2.9-5.2 6.3-8.4 10.2 0 0 4.1 27 4.1 27-5.9 11.9-10.9 18.9-15 20.6-4 1.7-7.4 1-10.2-2.2-2.7-3.1-4.7-8.5-5.8-16-0.7-4-1.5-8.9-2.3-14.8-0.7-5.7-1.6-12-2.5-18.9-0.9-6.6-1.7-12.1-2.5-16.6-0.7-4.4-1.3-8-1.9-10.6-1-5.1-2.2-10.3-3.5-15.7-1.3-5.3-2.8-10.7-4.5-16.3-6-5.1-9.5-9.9-10.4-14.3-0.8-3.8 0.1-7 2.6-9.7 2.5-2.7 6.6-4.8 12.3-6.4 2.7-0.8 5.5-1.4 8.1-1.9 2.7-0.4 5.3-0.8 7.9-1 5.2-0.5 10-0.7 14.6-0.5 4.5 0.1 8.8 0.7 12.9 1.6 6.8 1.4 12.5 3.7 17.3 7 4.8 3.2 8.6 7.5 11.4 13zm-5.3 1.2c-2.2-4.7-5.2-8.3-9.2-11-4-2.7-8.8-4.6-14.5-5.7-3.7-0.8-7.7-1.3-11.9-1.4-4.2-0.1-8.8 0.2-13.8 0.7-2.6 0.3-5.1 0.7-7.7 1.1-2.5 0.5-5 1.1-7.7 1.8-8.9 2.7-12.9 6.2-11.9 10.6 0.7 3.4 3.9 7.2 9.7 11.3 1.8 5.8 3.5 11.5 5 17.1 1.6 5.7 3 11.4 4.3 17.1 0.6 2.8 1.3 6.4 2 10.8 0.7 4.5 1.6 10 2.5 16.6 1 6.8 1.9 13 2.8 18.4 0.9 5.6 1.7 10.4 2.4 14.3 1.2 7.6 3.9 10.7 7.9 9.1 1.5-0.6 3.1-2 4.8-4 1.7-2.1 3.5-5.1 5.2-8.8 0 0-4.1-27.9-4.1-27.9 3.9-4.4 7.2-8.2 10-11.4 2.8-3.2 5.1-5.8 6.9-8 5-5.8 9-10.9 12-15.3 2.9-4.3 4.9-8.1 5.9-11.4 1.5-4.5 2.2-8.8 2.1-12.9-0.1-3.9-1-7.6-2.7-11.1zm-17.7 3.8c0.6 1.7 0.9 3.6 0.8 5.7 0.1 2.2-0.3 4.7-1 7.7-0.9 3.2-2.1 6.3-3.7 9.1-1.6 3-3.6 5.8-6 8.6 0 0-0.6 0.5-1.8 1.6-1.1 1.1-2.9 2.7-5.2 4.8-0.5 0.5-1.2 1.2-1.8 1.9-0.7 0.6-1.4 1.3-2 1.9-2-10.4-3.8-18.9-5.4-25.8-1.6-6.6-2.9-12-4.1-16.2 0 0-0.7-2.2-0.7-2.2 0 0 4.3-0.7 4.3-0.7 5.8-0.9 10.9-1.2 15.5-1 6.3 0.4 10 1.9 11.1 4.6zm15-3.2c2.9 6.6 3.1 13.9 0.4 22-1 3-2.9 6.5-5.7 10.6-2.9 4.1-6.7 8.9-11.4 14.2-2 2.2-4.5 5-7.5 8.4-3.1 3.4-6.7 7.4-10.8 12.1 0 0 4.1 28.4 4.1 28.4-2.5 5-5 8.1-7.5 9-1.9 0.8-3.2-0.8-3.9-4.7-1.4-7.6-3.1-18.5-5-32.2-2-12.7-3.6-21.7-4.9-27.4-1.4-6.1-3-12.3-4.8-18.7-1.8-6.1-3.7-12.3-5.8-18.6 0 0-1.1 0.6-1.1 0.6-4.3-2.9-6.8-5.8-7.5-8.5-0.6-2.7 2.9-5.3 10.4-7.6 5.2-1.5 10.2-2.5 15.1-3.1 4.8-0.5 9.3-0.8 13.4-0.7 4.2 0.1 8 0.5 11.6 1.2 10.2 2.1 17.1 6.9 20.9 15zm-12.4 2.7c-1.7-4.1-6.4-6.3-14-6.7-4.9-0.3-10.2-0.1-16 0.8-2.5 0.4-4.9 0.8-7.1 1.2 0.5 1.5 1 3.1 1.5 5 1.4 4.5 2.9 10.5 4.6 18.1 1.8 8.1 3.8 18.1 6 30.4 9.8-9.6 14.8-14.6 15.2-15.2 4.8-5.4 8.1-11.6 9.7-18.6 1.6-6.2 1.6-11.2 0.1-15zm70.6 7.4c0.4-0.3 0.9-0.6 1.3-0.8 0.5-0.2 0.9-0.3 1.4-0.5-0.6-0.4-1.2-0.8-1.8-1.1-0.7-0.5-1.3-0.9-1.9-1.4 0.1 0.7 0.3 1.3 0.4 1.9 0.2 0.6 0.4 1.2 0.6 1.9zm58.2-0.1c0.8 1.3 1.1 2.8 1.1 4.5 0 1.7-0.3 3.5-1 5.5-0.6 1.9-1.6 3.9-2.8 5.8-1.2 1.9-2.6 3.7-4.3 5.2-2.4 2.1-4.8 3.4-7.4 3.7-2.6 0.3-5.3-0.4-8.2-2.2-0.7-0.8-1.7-1.6-2.9-2.5-0.3-0.2-0.5-0.3-0.7-0.4-0.1-0.2-0.3-0.4-0.5-0.5-1 0.8-2 1.5-3 2.2-1.1 0.8-2.2 1.5-3.4 2.3-1.6 1.1-3.5 2.4-5.8 3.8-2.3 1.4-4.7 2.8-7.3 4.3-2 1-3.7 2-5 2.8 0 0-1.3 0.8-1.3 0.8 0.1 1.5 0.2 3 0.4 4.7 0.1 1.6 0.3 3.5 0.4 5.5-0.5 8.6-3.2 14.8-8 18.2-1.7 1.1-3.5 1.8-5.3 1.9-1.9 0-3.6-0.4-5.3-1.2-1.7-0.9-3.3-2.2-4.7-4-1.4-1.8-2.5-3.9-3.3-6.3-0.2-0.7-0.4-1.4-0.7-2.1-0.2-0.8-0.4-1.8-0.4-2.8 0 0 0.1 0.9 0.1 0.9-1.7-8.1-3.4-16.8-5.3-25.8-1-4.3-1.9-8.6-2.9-13-0.9-4.2-1.9-8.3-2.8-12.5-1.3-5.3-2.4-9.9-3.3-13.9-0.9-3.8-1.6-7-2.1-9.8-0.9-5.3-1.1-9-0.6-11.1 1-3.5 3.8-5.5 8.4-6.1 3.9-0.5 8-0.1 12.1 1.1 0 0-0.2 0-0.2 0 1.8 0.5 3.9 1.2 6.1 2.3 2.3 1.1 4.7 2.4 7.5 3.9 0.7 0.5 1.4 1 2.1 1.5 0.7 0.4 1.4 0.8 2.3 1.3 0.7 0.4 1.5 0.9 2.2 1.3 0.8 0.4 1.6 0.9 2.4 1.3 0 0-0.4-0.2-0.4-0.2 4 2.1 9 4.7 15 7.7 5.9 3 12.9 6.3 20.7 10 2.6 0.7 4.8 1.9 6.4 3.7 6.7 3.7 10.5 6.4 11.7 8.2zm-5.1 4c-0.5-0.9-1.7-2-3.6-3.3-1.9-1.4-4.6-3.1-7.9-5.2 0 0-0.2-0.3-0.2-0.3-1.3-1.6-3-2.5-5.1-2.8-7.7-4.3-14.6-8-20.6-11.2-6-3.2-11-6-15-8.3 0 0 0.1 0.2 0.1 0.2-0.8-0.5-1.5-1-2.3-1.4-0.7-0.5-1.4-1-2.1-1.5-0.9-0.5-1.6-0.9-2.4-1.4-0.7-0.4-1.4-0.9-2.2-1.4-2.3-1.4-4.3-2.6-6.1-3.5-1.8-0.9-3.4-1.5-4.8-1.9-2.8-0.8-5.5-1-8.1-0.6-1.5 0.3-2.7 0.7-3.6 1.4-0.9 0.6-1.5 1.6-1.9 2.8-0.5 1.8-0.3 5.2 0.8 10.2 0.5 2.6 1.3 5.7 2.2 9.4 1 3.7 2.1 8.1 3.4 13.2 1 4.1 2 8.1 2.9 12.2 1 4.2 1.9 8.4 2.9 12.6 1.8 8.8 3.5 17.2 5.3 25.1 0 0 0.1-0.4 0.1-0.4 0.2 1.3 0.4 2.2 0.7 2.9 0.9 2.7 2.4 4.5 4.4 5.4 2.1 0.9 4.1 0.8 5.9-0.4 2.8-1.8 4.3-5.2 4.7-10-0.3-3.1-0.6-5.8-0.9-8.3-0.2-2.4-0.4-4.5-0.6-6.4 0 0 5.2-2.9 5.2-2.9 0.7-0.5 1.6-0.9 2.5-1.4 0.9-0.4 1.8-0.9 2.7-1.4 2.8-1.4 5.2-2.7 7.4-4 2.1-1.2 3.9-2.3 5.5-3.3 1.8-1.1 3.5-2.2 5.2-3.4 1.7-1.1 3.3-2.3 4.8-3.5 0.8 0.6 1.5 1.3 2.3 1.9 0.7 0.5 1.4 1 2 1.5 1.1 0.7 2 1.4 2.9 2.2 1.7 1 3.3 1.4 4.9 1.2 1.5-0.3 3-1 4.4-2.1 1-0.8 1.8-1.8 2.5-2.8 0.7-1 1.3-2.1 1.7-3.2 0.4-1.1 0.6-2.2 0.6-3.2 0-1-0.1-1.9-0.6-2.7zm-41.9-3.2c-1.4 0.6-3.4 1.6-6 2.9-2.6 1.2-5.9 2.8-9.7 4.8-0.2-1-0.4-1.9-0.6-2.7-0.2-0.9-0.3-1.8-0.5-2.8-0.3-1.4-0.6-2.9-0.9-4.3-0.4-1.4-0.7-2.8-1-4.3-0.5-1.7-0.9-3.4-1.2-5.1-0.4-1.6-0.8-3.1-1-4.5 4.8 3.1 9.2 5.9 13.1 8.3 4 2.4 7.5 4.6 10.6 6.5-0.6 0.2-1.1 0.4-1.6 0.6-0.4 0.2-0.8 0.4-1.2 0.6zm39.3 5.2c0.5 1 0.5 2.3-0.2 3.8-0.5 1.4-1.4 2.7-2.7 3.7-1.8 1.5-3.8 1.6-6 0.5-2-1.4-4.9-3.6-8.8-6.5-3.5 2.7-7.4 5.4-11.6 8-3.2 1.9-7.5 4.2-12.8 6.9-6.7 3.5-11 5.6-12.8 6.4 0.7 3.6 1.3 9 1.7 16.7-0.2 3.2-1 5.4-2.6 6.4-1.1 0.7-2.2 0.8-3.5 0.3-1.3-0.4-2.2-1.5-2.8-3-0.2-0.6-0.4-1.2-0.5-1.8-1.8-7.9-3.6-16.1-5.4-24.7-1-4.1-1.9-8.3-2.9-12.4-1-4-2-8.1-3-12.1-1.3-5-2.4-9.2-3.4-12.9-0.9-3.5-1.6-6.5-2.1-9-1.1-4.9-1.4-8.2-1-9.9 0.4-1.8 1.7-2.9 3.9-3.2 2.1-0.4 4.3-0.2 6.5 0.4 2.2 0.5 5.3 2.2 9.5 4.8 3 2 6 3.9 9 5.9 4 2.3 9 5.1 15 8.5 6.1 3.4 13 7.3 20.9 11.7 2 0.3 3.4 1.3 4.3 3 6.7 4.3 10.4 7.1 11.3 8.5zm-30.5-6.3c-3.8-2.1-8.5-4.8-14.2-8.2-5.6-3.3-12.1-7.3-19.4-11.9 0.6 3.8 1.6 8.8 3 15.2 1.4 5.6 2.7 11.6 3.9 18 9.8-5 16.2-8.2 19.3-9.7 2.2-1.1 4.7-2.2 7.4-3.4z"/>
	</g>
</svg>